<svg xmlns="http://www.w3.org/2000/svg" version="1.1" xmlns:xlink="http://www.w3.org/1999/xlink" xmlns:svgjs="http://svgjs.dev/svgjs" viewBox="0 0 2400 800"><defs><linearGradient x1="50%" y1="0%" x2="50%" y2="100%" id="sssurf-grad"><stop stop-color="#ee839f" stop-opacity="1" offset="0%"></stop><stop stop-color="#f3cfce" stop-opacity="1" offset="100%"></stop></linearGradient></defs><g fill="url(#sssurf-grad)" transform="matrix(1,0,0,1,0,-92.80258178710938)"><path d="M 0 305.6051289153998 Q 450 612.2135784574511 600 308.6737392711123 Q 1050 642.8150240386645 1200 325.48725672576705 Q 1650 553.9413757111267 1800 322.3081065393747 Q 2250 549.4042293646187 2400 318.79668031033964 L 2400 800 L 0 800 L 0 331.2618437424401 Z" transform="matrix(1,0,0,1,0,35)" opacity="0.05"></path><path d="M 0 305.6051289153998 Q 450 612.2135784574511 600 308.6737392711123 Q 1050 642.8150240386645 1200 325.48725672576705 Q 1650 553.9413757111267 1800 322.3081065393747 Q 2250 549.4042293646187 2400 318.79668031033964 L 2400 800 L 0 800 L 0 331.2618437424401 Z" transform="matrix(1,0,0,1,0,70)" opacity="0.21"></path><path d="M 0 305.6051289153998 Q 450 612.2135784574511 600 308.6737392711123 Q 1050 642.8150240386645 1200 325.48725672576705 Q 1650 553.9413757111267 1800 322.3081065393747 Q 2250 549.4042293646187 2400 318.79668031033964 L 2400 800 L 0 800 L 0 331.2618437424401 Z" transform="matrix(1,0,0,1,0,105)" opacity="0.37"></path><path d="M 0 305.6051289153998 Q 450 612.2135784574511 600 308.6737392711123 Q 1050 642.8150240386645 1200 325.48725672576705 Q 1650 553.9413757111267 1800 322.3081065393747 Q 2250 549.4042293646187 2400 318.79668031033964 L 2400 800 L 0 800 L 0 331.2618437424401 Z" transform="matrix(1,0,0,1,0,140)" opacity="0.53"></path><path d="M 0 305.6051289153998 Q 450 612.2135784574511 600 308.6737392711123 Q 1050 642.8150240386645 1200 325.48725672576705 Q 1650 553.9413757111267 1800 322.3081065393747 Q 2250 549.4042293646187 2400 318.79668031033964 L 2400 800 L 0 800 L 0 331.2618437424401 Z" transform="matrix(1,0,0,1,0,175)" opacity="0.68"></path><path d="M 0 305.6051289153998 Q 450 612.2135784574511 600 308.6737392711123 Q 1050 642.8150240386645 1200 325.48725672576705 Q 1650 553.9413757111267 1800 322.3081065393747 Q 2250 549.4042293646187 2400 318.79668031033964 L 2400 800 L 0 800 L 0 331.2618437424401 Z" transform="matrix(1,0,0,1,0,210)" opacity="0.84"></path><path d="M 0 305.6051289153998 Q 450 612.2135784574511 600 308.6737392711123 Q 1050 642.8150240386645 1200 325.48725672576705 Q 1650 553.9413757111267 1800 322.3081065393747 Q 2250 549.4042293646187 2400 318.79668031033964 L 2400 800 L 0 800 L 0 331.2618437424401 Z" transform="matrix(1,0,0,1,0,245)" opacity="1"></path></g></svg>
