<svg id="visual" viewBox="0 0 675 900" width="675" height="900" xmlns="http://www.w3.org/2000/svg" xmlns:xlink="http://www.w3.org/1999/xlink" version="1.1"><path d="M526 900L521.5 870C517 840 508 780 508 720C508 660 517 600 513.5 540C510 480 494 420 484.8 360C475.7 300 473.3 240 494.8 180C516.3 120 561.7 60 584.3 30L607 0L675 0L675 30C675 60 675 120 675 180C675 240 675 300 675 360C675 420 675 480 675 540C675 600 675 660 675 720C675 780 675 840 675 870L675 900Z" fill="#f688ba"></path><path d="M397 900L398.2 870C399.3 840 401.7 780 398.3 720C395 660 386 600 379.3 540C372.7 480 368.3 420 348.2 360C328 300 292 240 305.3 180C318.7 120 381.3 60 412.7 30L444 0L608 0L585.3 30C562.7 60 517.3 120 495.8 180C474.3 240 476.7 300 485.8 360C495 420 511 480 514.5 540C518 600 509 660 509 720C509 780 518 840 522.5 870L527 900Z" fill="#f060a4"></path><path d="M100 900L106.8 870C113.7 840 127.3 780 137.5 720C147.7 660 154.3 600 143 540C131.7 480 102.3 420 90 360C77.7 300 82.3 240 85.8 180C89.3 120 91.7 60 92.8 30L94 0L445 0L413.7 30C382.3 60 319.7 120 306.3 180C293 240 329 300 349.2 360C369.3 420 373.7 480 380.3 540C387 600 396 660 399.3 720C402.7 780 400.3 840 399.2 870L398 900Z" fill="#d8408b"></path><path d="M0 900L0 870C0 840 0 780 0 720C0 660 0 600 0 540C0 480 0 420 0 360C0 300 0 240 0 180C0 120 0 60 0 30L0 0L95 0L93.8 30C92.7 60 90.3 120 86.8 180C83.3 240 78.7 300 91 360C103.3 420 132.7 480 144 540C155.3 600 148.7 660 138.5 720C128.3 780 114.7 840 107.8 870L101 900Z" fill="#b1316f"></path></svg>