<svg width="250" height="250" viewBox="0 0 250 250" xmlns="http://www.w3.org/2000/svg"><path d="M112.889 122.222H95.018l26.803 26.803zm2.926 0h18.369L125 149.775zm21.297 0h17.869l-26.803 26.803L137.111 122.222zm-45.732 -3.065L102.203 108.333h45.593l0.694 0.694 10.131 10.129L160.297 120.833l-34.315 34.315 -0.982 0.982L89.703 120.833l1.676 -1.676zm3.639 0.287L102.778 111.686 110.536 119.444zm22.222 0L125 111.686 132.758 119.444zm22.222 0L147.222 111.686 154.981 119.444zm-11.111 -8.333h15.518L136.111 118.869zM113.889 118.869 121.647 111.111H106.131zM24.186 0 0.982 23.204 0 24.186V0zM5.944 0 0 17.831V0zm14.314 0L3.178 17.081 8.872 0zM250 24.186 225.814 0H250zM229.742 0l17.081 17.081L241.128 0zM250 17.831 244.056 0H250zM0 226.389h22.796l0.694 0.694 10.131 10.129L35.297 238.889l-11.111 11.111H0zm0 13.889h9.185l-3.242 9.722H0zm20.258 9.722 9.722 -9.722H12.111l-3.24 9.722zM0 229.742 7.758 237.5H0zM14.464 237.5 22.222 229.742 29.981 237.5zm-11.111 -8.333h15.517L11.111 236.925zM250 226.389h-22.796l-10.825 10.824 -1.676 1.676 11.111 11.111H250zm-20.258 23.611 -9.722 -9.722h17.868l3.24 9.722h-11.389zM250 240.278h-9.185l3.242 9.722H250zm-29.981 -2.778 7.758 -7.758 7.758 7.758zM250 229.742 242.242 237.5H250zm-11.111 7.183 7.758 -7.758h-15.517zM212.407 35.629l1.964 1.964 -47.139 47.142 -1.967 -1.967zm1.964 176.778 -1.964 1.964 -47.142 -47.139 1.967 -1.967zm-176.778 1.964 -1.964 -1.964 47.139 -47.142 1.967 1.967 -47.143 47.139zm-1.964 -176.778 1.964 -1.964 47.142 47.139 -1.967 1.967 -47.139 -47.143zM0 118.056c3.069 0 5.556 2.486 5.556 5.556s-2.486 5.556 -5.556 5.556zm250 0c-3.069 0 -5.556 2.486 -5.556 5.556s2.486 5.556 5.556 5.556zM130.556 0c0 3.069 -2.486 5.556 -5.556 5.556s-5.556 -2.486 -5.556 -5.556zm0 250c0 -3.069 -2.486 -5.556 -5.556 -5.556s-5.556 2.486 -5.556 5.556z" fill="#a259ff" fill-opacity="0.49" fill-rule="evenodd"/></svg>