<svg width="300px" height="300px" viewBox="0 0 9 9" fill="none" xmlns="http://www.w3.org/2000/svg">
  <path d="m7.89 4.98 -0.345 -0.338 -2.906 2.902 0.349 0.349c0.292 0.292 0.596 0.439 0.896 0.439s0.604 -0.146 0.896 -0.439l1.11 -1.11c0.596 -0.6 0.596 -1.204 0 -1.804" fill="currentColor"/>
  <path d="M4.009 1.099c-0.589 -0.589 -1.208 -0.589 -1.796 0l-1.114 1.11c-0.585 0.589 -0.585 1.208 0 1.796l0.345 0.345 2.906 -2.906z" fill="currentColor"/>
  <path d="M8.179 1.477c-0.491 1.226 -1.612 2.828 -2.681 3.874a2.235 2.235 0 0 0 -1.901 -1.86c1.05 -1.073 2.662 -2.209 3.893 -2.704 0.217 -0.083 0.435 -0.019 0.57 0.116 0.143 0.143 0.21 0.356 0.12 0.574" fill="currentColor"/>
  <path d="M5.167 5.659c-0.075 0.064 -0.15 0.128 -0.225 0.188l-0.671 0.536c0 -0.011 -0.004 -0.026 -0.004 -0.041 -0.053 -0.401 -0.24 -0.772 -0.544 -1.076a1.886 1.886 0 0 0 -1.11 -0.547c-0.011 0 -0.026 -0.004 -0.038 -0.004l0.544 -0.686c0.053 -0.068 0.109 -0.131 0.169 -0.199l0.255 0.034c0.806 0.112 1.455 0.746 1.583 1.549z" fill="currentColor"/>
  <path d="M3.911 6.607c0 0.413 -0.158 0.806 -0.458 1.103 -0.229 0.232 -0.536 0.39 -0.911 0.435l-0.919 0.101c-0.503 0.056 -0.934 -0.375 -0.877 -0.881l0.101 -0.922c0.09 -0.821 0.776 -1.346 1.504 -1.361 0.071 -0.004 0.15 0 0.225 0.007 0.319 0.041 0.626 0.188 0.885 0.443 0.251 0.251 0.394 0.547 0.435 0.859 0.007 0.075 0.015 0.146 0.015 0.217" fill="currentColor"/>
</svg>
