<svg width="300px" height="300px" viewBox="0 0 9 9" fill="none" xmlns="http://www.w3.org/2000/svg"><path d="M7.871 3.641q-0.191 -0.079 -0.506 -0.079h-1.98c-0.652 0 -0.885 0.232 -0.885 0.892v2.902c0 0.217 0.026 0.386 0.083 0.517 0.116 0.27 0.364 0.375 0.802 0.375h1.98c0.652 0 0.885 -0.236 0.885 -0.892v-2.902c0 -0.446 -0.105 -0.698 -0.379 -0.814M6.75 7.406h-0.75c-0.007 0 -0.019 0 -0.026 -0.004a0.232 0.232 0 0 1 -0.146 -0.06 0.262 0.262 0 0 1 -0.109 -0.217c0 -0.154 0.128 -0.281 0.281 -0.281h0.75c0.154 0 0.281 0.128 0.281 0.281s-0.128 0.281 -0.281 0.281" fill="currentColor"/><path d="M7.871 2.321V2.625c0 0.206 -0.169 0.375 -0.375 0.375h-2.111c-0.96 0 -1.448 0.491 -1.448 1.455V7.875c0 0.206 -0.169 0.375 -0.375 0.375H2.831c-0.15 0 -0.27 -0.12 -0.27 -0.266 0 -0.15 0.12 -0.266 0.27 -0.266H3.563v-1.436H2.25a1.574 1.574 0 0 1 -1.496 -1.571V2.321C0.754 1.455 1.459 0.75 2.329 0.75H6.3c0.866 0 1.571 0.705 1.571 1.571" fill="currentColor"/></svg>