<svg height="100px" width="100px" version="1.1" id="Capa_1" xmlns="http://www.w3.org/2000/svg" xmlns:xlink="http://www.w3.org/1999/xlink" viewBox="0 0 1.61 1.61" xml:space="preserve"><g><path style="fill:currentColor;" d="M1.607 0.007h-0.514v0.514h0.514zm-0.09 0.424H1.183V0.097h0.334zM1.259 0.166h0.183v0.183H1.259zM0.011 0.519h0.514V0.005H0.011zM0.101 0.095h0.334v0.334H0.101zm0.075 0.069h0.183v0.183H0.177zM0 1.599h0.514V1.085H0zm0.09 -0.424H0.424v0.334H0.09zm0.075 0.069h0.183v0.183H0.166zm0.433 -0.221h0.054v0.057h0.059V1.021h-0.054v-0.056h0.105v-0.111h-0.112v0.11h-0.048v-0.059h-0.059v0.059h0.054zm-0.001 0.191h0.059v0.059h-0.059zm-0.015 0.299h0.059v0.059h-0.059zm0.045 -0.385h0.059V1.188h-0.059zM0.07 0.728h0.059v-0.059H0.07v-0.057H0.011v0.059h0.059zM0.1 0.964h0.059v0.054h0.059v-0.059h-0.059v-0.047h0.059v-0.059h-0.059v0.052H0.108V0.813H0.011v0.097H0.1zm1.351 -0.371h0.159v0.159h-0.159zm0.053 0.181h0.08v0.08h-0.08zm-0.028 0.069h0.055v0.055h-0.055zm0.054 0.285h0.08v0.08h-0.08zm0.039 0.374h-0.063v0.102h0.103v-0.141h-0.04zm-0.103 -0.036h0.04v0.04h-0.04zM1.133 1.173V1.094H1.061v-0.091h-0.096v0.096h0.088v0.075zm0.415 0.074h-0.08v0.079h0.062v0.058h0.08v-0.08h-0.062zM1.071 1.385v-0.08H1v-0.057h-0.08v0.079h0.071v0.058zm0.203 -0.743h0.08v0.08h-0.08zM0.879 0.882h0.08v0.08h-0.08zm0.248 -0.04h-0.086v0.159h0.159v-0.146h0.067v0.111h0.112v-0.102h0.053v-0.059h-0.059v0.048h-0.103V0.712H1.143v-0.071h0.074v-0.08h-0.079v0.063h-0.083v0.088h0.073zm-0.304 0.525h0.072v0.072h-0.072zm0.128 -0.904h-0.063v0.063h0.059v0.098h0.106v-0.106h-0.102zm-0.035 -0.116h0.063v0.063h-0.063zm-0.309 -0.031h0.063v0.063h-0.063zm0.075 0.179h0.108v-0.113h0.098V0.253H0.76v0.125h-0.087v0.117h-0.099v0.107h0.107zM0.906 0.093h0.107v0.107h-0.107zM0.653 0.244h0.107v-0.107h-0.078V0.093h-0.107v0.107h0.078zM0.992 0.746h-0.072v-0.08h-0.08v-0.066H0.707v0.056h-0.08v0.133h0.133v-0.056h0.052v0.04h0.09v0.063h0.089zM0.34 0.606h0.15v0.15H0.34zm0.516 0.657v-0.067h-0.064v-0.061h-0.066v0.066h0.064v0.062zm0.41 -0.086h0.047v-0.059h-0.055v-0.049h-0.059v0.059h0.055v0.048h-0.12v0.133h0.11v0.124h0.159v-0.159h-0.136zm0.087 -0.003h0.133v-0.109h0.066v-0.075h0.057v-0.08h-0.08v0.075h-0.057v0.056h-0.119zm-0.58 -0.172h0.133v0.133H0.773zM0.208 0.738v0.097h0.083v0.075h0.049v0.084h0.15V0.843h-0.102V0.813h-0.083v-0.075zm0.94 0.605h0.059v0.059h-0.059zm-0.385 -0.028H0.612v0.151h0.114v0.045h-0.068v0.072h0.072v-0.036h0.101v-0.105h-0.068zm0.097 0.166h0.123v0.122h-0.123zm0.193 -0.056h0.123v0.122h-0.123zm0.191 0.066h0.114v0.114h-0.114z"/></g></svg>