<svg width="300px" height="300px" viewBox="0 0 18 18" fill="none" xmlns="http://www.w3.org/2000/svg"><path fill-rule="evenodd" clip-rule="evenodd" d="M9 11.006a0.75 0.75 0 0 1 0.625 -0.74c0.796 -0.134 1.689 -0.386 2.474 -0.798 1.156 -0.607 2.151 -1.607 2.151 -3.151 0 -1.364 -0.64 -2.377 -1.6 -3.045 -0.947 -0.658 -2.194 -0.978 -3.446 -1.018 -1.254 -0.04 -2.548 0.2 -3.605 0.699C4.545 3.45 3.681 4.231 3.388 5.295a0.375 0.375 0 0 0 0.724 0.199c0.213 -0.776 0.865 -1.418 1.808 -1.863 0.936 -0.442 2.109 -0.664 3.261 -0.627 1.154 0.037 2.247 0.332 3.041 0.884 0.781 0.543 1.279 1.337 1.279 2.429 0 1.151 -0.72 1.947 -1.749 2.487 -1.026 0.538 -2.282 0.776 -3.147 0.825a0.375 0.375 0 0 0 -0.354 0.375V11.25a0.375 0.375 0 1 0 0.75 0zM8.625 13.875a0.75 0.75 0 1 0 0 1.5 0.75 0.75 0 0 0 0 -1.5M13.078 2.656c1.14 0.793 1.923 2.025 1.923 3.661 0 1.937 -1.27 3.142 -2.552 3.815 -0.874 0.459 -1.848 0.73 -2.698 0.874V11.25a1.125 1.125 0 0 1 -2.25 0v-1.246a1.125 1.125 0 0 1 1.061 -1.123c0.794 -0.045 1.937 -0.266 2.841 -0.741C12.295 7.671 12.75 7.084 12.75 6.317c0 -0.823 -0.357 -1.396 -0.957 -1.814 -0.641 -0.446 -1.581 -0.716 -2.637 -0.75 -1.049 -0.033 -2.102 0.171 -2.917 0.556 -0.827 0.39 -1.27 0.892 -1.404 1.384a1.125 1.125 0 0 1 -2.17 -0.596c0.371 -1.352 1.448 -2.271 2.614 -2.822 1.179 -0.556 2.594 -0.813 3.949 -0.77 1.349 0.043 2.751 0.387 3.849 1.151M7.125 14.625a1.5 1.5 0 1 1 3 0 1.5 1.5 0 0 1 -3 0" fill="currentColor"/></svg>