<svg width="300px" height="300px" viewBox="0 0 9 9" fill="none" xmlns="http://www.w3.org/2000/svg"><path d="m5.051 2.78 0.922 -0.454c0.112 -0.056 0.143 -0.203 0.056 -0.292 -0.334 -0.367 -0.671 -0.675 -0.941 -0.907a0.186 0.186 0 0 0 -0.307 0.143v1.343c0 0.139 0.146 0.229 0.27 0.169" fill="currentColor"/><path d="M4.781 7.402v0.619c0 0.112 0.101 0.206 0.214 0.188a3.045 3.045 0 0 0 2.284 -1.778c0.071 -0.158 -0.101 -0.315 -0.259 -0.24l-2.134 1.046c-0.064 0.03 -0.105 0.094 -0.105 0.165" fill="currentColor"/><path d="M4.219 1.261a0.188 0.188 0 0 0 -0.307 -0.146c-0.885 0.742 -2.456 2.306 -2.449 4.099 0 1.507 1.103 2.756 2.542 2.996 0.112 0.019 0.214 -0.075 0.214 -0.188z" fill="currentColor"/><path d="m5.04 4.677 1.984 -0.833c0.101 -0.045 0.15 -0.161 0.101 -0.259 -0.139 -0.274 -0.3 -0.54 -0.476 -0.788 -0.053 -0.075 -0.15 -0.098 -0.232 -0.06l-1.534 0.746a0.188 0.188 0 0 0 -0.105 0.169v0.851c0.004 0.131 0.139 0.225 0.262 0.173" fill="currentColor"/><path d="M7.436 5.366c0.06 -0.03 0.098 -0.086 0.098 -0.15 0 -0.24 -0.03 -0.476 -0.083 -0.709 -0.026 -0.112 -0.15 -0.173 -0.255 -0.128l-2.302 0.983c-0.068 0.03 -0.112 0.098 -0.112 0.173v0.825c0 0.139 0.146 0.229 0.27 0.169l2.213 -1.076z" fill="currentColor"/></svg>